HIERARCHY
ROOT Hips
{
    OFFSET   0.000000   0.000000   0.000000
    CHANNELS 6 Xposition Yposition Zposition Zrotation Xrotation Yrotation
    JOINT Chest
    {
        OFFSET   0.000000   8.007230   0.000000
        CHANNELS 3 Zrotation Xrotation Yrotation
        JOINT Chest2
        {
            OFFSET   0.000000  22.077100   0.000000
            CHANNELS 3 Zrotation Xrotation Yrotation
            JOINT Neck
            {
                OFFSET   0.000000  23.254800  -0.000021
                CHANNELS 3 Zrotation Xrotation Yrotation
                JOINT Head
                {
                    OFFSET   0.000000  14.370000   1.956610
                    CHANNELS 3 Zrotation Xrotation Yrotation
                    End Site
                    {
                        OFFSET   0.000000  19.566000   0.000000
                    }
                }
            }
            JOINT LeftCollar
            {
                OFFSET   3.911900  19.017000  -0.467063
                CHANNELS 3 Zrotation Xrotation Yrotation
                JOINT LeftShoulder
                {
                    OFFSET  10.383700   0.000000   0.000000
                    CHANNELS 3 Zrotation Xrotation Yrotation
                    JOINT LeftElbow
                    {
                        OFFSET  26.662100   0.001529   0.000325
                        CHANNELS 3 Zrotation Xrotation Yrotation
                        JOINT LeftWrist
                        {
                            OFFSET  28.869000  -0.000011  -0.000096
                            CHANNELS 3 Zrotation Xrotation Yrotation
                            JOINT LeftFinger0
                            {
                                OFFSET   2.044650  -2.323460   3.252850
                                CHANNELS 3 Zrotation Xrotation Yrotation
                                JOINT LeftFinger01
                                {
                                    OFFSET   3.088130   0.000000   0.000000
                                    CHANNELS 3 Zrotation Xrotation Yrotation
                                    JOINT LeftFinger02
                                    {
                                        OFFSET   2.639460   0.000000   0.000000
                                        CHANNELS 3 Zrotation Xrotation Yrotation
                                        End Site
                                        {
                                            OFFSET   2.582190   0.000000   0.000000
                                        }
                                    }
                                }
                            }
                            JOINT LeftFinger1
                            {
                                OFFSET   8.364480   0.000000   3.252850
                                CHANNELS 3 Zrotation Xrotation Yrotation
                                JOINT LeftFinger11
                                {
                                    OFFSET   4.646930   0.000000   0.000000
                                    CHANNELS 3 Zrotation Xrotation Yrotation
                                    JOINT LeftFinger12
                                    {
                                        OFFSET   2.323460   0.000000   0.000000
                                        CHANNELS 3 Zrotation Xrotation Yrotation
                                        End Site
                                        {
                                            OFFSET   2.273050   0.000000   0.000000
                                        }
                                    }
                                }
                            }
                            JOINT LeftFinger2
                            {
                                OFFSET   8.364480   0.000016   1.078090
                                CHANNELS 3 Zrotation Xrotation Yrotation
                                JOINT LeftFinger21
                                {
                                    OFFSET   5.111620   0.000000   0.000000
                                    CHANNELS 3 Zrotation Xrotation Yrotation
                                    JOINT LeftFinger22
                                    {
                                        OFFSET   2.788160   0.000017   0.000000
                                        CHANNELS 3 Zrotation Xrotation Yrotation
                                        End Site
                                        {
                                            OFFSET   2.727660   0.000000   0.000000
                                        }
                                    }
                                }
                            }
                            JOINT LeftFinger3
                            {
                                OFFSET   7.899780   0.000015  -1.078090
                                CHANNELS 3 Zrotation Xrotation Yrotation
                                JOINT LeftFinger31
                                {
                                    OFFSET   4.646920   0.000000   0.000000
                                    CHANNELS 3 Zrotation Xrotation Yrotation
                                    JOINT LeftFinger32
                                    {
                                        OFFSET   2.323470   0.000000   0.000000
                                        CHANNELS 3 Zrotation Xrotation Yrotation
                                        End Site
                                        {
                                            OFFSET   2.273050   0.000000   0.000000
                                        }
                                    }
                                }
                            }
                            JOINT LeftFinger4
                            {
                                OFFSET   7.435090   0.000000  -3.252850
                                CHANNELS 3 Zrotation Xrotation Yrotation
                                JOINT LeftFinger41
                                {
                                    OFFSET   3.717550   0.000000   0.000000
                                    CHANNELS 3 Zrotation Xrotation Yrotation
                                    JOINT LeftFinger42
                                    {
                                        OFFSET   1.858760   0.000000   0.000000
                                        CHANNELS 3 Zrotation Xrotation Yrotation
                                        End Site
                                        {
                                            OFFSET   1.818440   0.000000   0.000000
                                        }
                                    }
                                }
                            }
                        }
                    }
                }
            }
            JOINT RightCollar
            {
                OFFSET  -3.911900  19.017000  -0.467062
                CHANNELS 3 Zrotation Xrotation Yrotation
                JOINT RightShoulder
                {
                    OFFSET -10.383700   0.000015   0.000000
                    CHANNELS 3 Zrotation Xrotation Yrotation
                    JOINT RightElbow
                    {
                        OFFSET -26.662100   0.001341   0.000385
                        CHANNELS 3 Zrotation Xrotation Yrotation
                        JOINT RightWrist
                        {
                            OFFSET -28.869000   0.000025  -0.000080
                            CHANNELS 3 Zrotation Xrotation Yrotation
                            JOINT RightFinger0
                            {
                                OFFSET  -2.044650  -2.323490   3.252850
                                CHANNELS 3 Zrotation Xrotation Yrotation
                                JOINT RightFinger01
                                {
                                    OFFSET  -3.088130   0.000000   0.000000
                                    CHANNELS 3 Zrotation Xrotation Yrotation
                                    JOINT RightFinger02
                                    {
                                        OFFSET  -2.639460   0.000000   0.000000
                                        CHANNELS 3 Zrotation Xrotation Yrotation
                                        End Site
                                        {
                                            OFFSET  -2.582190   0.000000   0.000000
                                        }
                                    }
                                }
                            }
                            JOINT RightFinger1
                            {
                                OFFSET  -8.364480   0.000000   3.252850
                                CHANNELS 3 Zrotation Xrotation Yrotation
                                JOINT RightFinger11
                                {
                                    OFFSET  -4.646930   0.000000   0.000000
                                    CHANNELS 3 Zrotation Xrotation Yrotation
                                    JOINT RightFinger12
                                    {
                                        OFFSET  -2.323470   0.000000   0.000000
                                        CHANNELS 3 Zrotation Xrotation Yrotation
                                        End Site
                                        {
                                            OFFSET  -2.273050   0.000000   0.000000
                                        }
                                    }
                                }
                            }
                            JOINT RightFinger2
                            {
                                OFFSET  -8.364480   0.000000   1.078090
                                CHANNELS 3 Zrotation Xrotation Yrotation
                                JOINT RightFinger21
                                {
                                    OFFSET  -5.111610   0.000000   0.000000
                                    CHANNELS 3 Zrotation Xrotation Yrotation
                                    JOINT RightFinger22
                                    {
                                        OFFSET  -2.788160   0.000000   0.000000
                                        CHANNELS 3 Zrotation Xrotation Yrotation
                                        End Site
                                        {
                                            OFFSET  -2.727660   0.000000   0.000000
                                        }
                                    }
                                }
                            }
                            JOINT RightFinger3
                            {
                                OFFSET  -7.899780   0.000000  -1.078090
                                CHANNELS 3 Zrotation Xrotation Yrotation
                                JOINT RightFinger31
                                {
                                    OFFSET  -4.646920   0.000000   0.000000
                                    CHANNELS 3 Zrotation Xrotation Yrotation
                                    JOINT RightFinger32
                                    {
                                        OFFSET  -2.323470   0.000000   0.000000
                                        CHANNELS 3 Zrotation Xrotation Yrotation
                                        End Site
                                        {
                                            OFFSET  -2.273050   0.000000   0.000000
                                        }
                                    }
                                }
                            }
                            JOINT RightFinger4
                            {
                                OFFSET  -7.435090   0.000000  -3.252850
                                CHANNELS 3 Zrotation Xrotation Yrotation
                                JOINT RightFinger41
                                {
                                    OFFSET  -3.717550   0.000000   0.000000
                                    CHANNELS 3 Zrotation Xrotation Yrotation
                                    JOINT RightFinger42
                                    {
                                        OFFSET  -1.858770   0.000000   0.000000
                                        CHANNELS 3 Zrotation Xrotation Yrotation
                                        End Site
                                        {
                                            OFFSET  -1.818440   0.000000   0.000000
                                        }
                                    }
                                }
                            }
                        }
                    }
                }
            }
        }
    }
    JOINT LeftHip
    {
        OFFSET   9.783010   0.000000   0.000000
        CHANNELS 3 Zrotation Xrotation Yrotation
        JOINT LeftKnee
        {
            OFFSET   0.000070 -41.789100   0.000028
            CHANNELS 3 Zrotation Xrotation Yrotation
            JOINT LeftAnkle
            {
                OFFSET   0.000087 -41.133200  -0.000100
                CHANNELS 3 Zrotation Xrotation Yrotation
                JOINT LeftToe
                {
                    OFFSET   0.000000  -6.358960  14.674500
                    CHANNELS 3 Zrotation Xrotation Yrotation
                    End Site
                    {
                        OFFSET   0.000000   0.000000   3.913200
                    }
                }
            }
        }
    }
    JOINT RightHip
    {
        OFFSET  -9.783020   0.000000   0.000000
        CHANNELS 3 Zrotation Xrotation Yrotation
        JOINT RightKnee
        {
            OFFSET   0.000044 -41.789100  -0.000870
            CHANNELS 3 Zrotation Xrotation Yrotation
            JOINT RightAnkle
            {
                OFFSET  -0.000090 -41.133200  -0.000245
                CHANNELS 3 Zrotation Xrotation Yrotation
                JOINT RightToe
                {
                    OFFSET   0.000000  -6.358960  14.674500
                    CHANNELS 3 Zrotation Xrotation Yrotation
                    End Site
                    {
                        OFFSET   0.000000   0.000000   3.913200
                    }
                }
            }
        }
    }
}
MOTION
Frames: 5
Frame Time:   0.016667
-11.690200  87.582000   2.448420  -0.868303 -18.577400  11.839400   0.035011   9.622690  -0.373073   0.137625  19.245000  -0.768867   5.430490  -1.340110   0.127423   8.935680  -2.644250 -16.997000  -4.135990  -2.031890   2.340500 -45.856200  12.463900 -64.573700  -0.493180  -4.925420 -130.832000  28.967400   8.292090 -28.928400  60.339400  59.075300 -108.636000 -44.595200  -0.004834   0.000280 -19.017900  -0.003599   0.002958 -31.846500  10.189700 -15.940600 -27.229100   0.001667  -0.000055 -19.060300   0.001420  -0.000075 -89.000000  -0.001732   0.001898 -95.836700  -0.001300  -0.003113 -71.877500   0.008817   0.005381 -88.996100  -5.004070   0.088380 -89.670500   0.001149   0.002000 -67.252900  -0.000760   0.001747 -88.985200  -9.996100   0.173263 -110.000000   0.002446  -0.002124 -80.000000   0.001497  -0.000733   7.238710  -0.133848   8.179370  69.021700  18.584500  10.567200   0.636851  -4.370740  18.375300 -25.740400 -15.135400   4.301910 -35.110300  29.134100  62.751700  34.356900   0.001785  -0.001146  12.178500   0.002133   0.007363  32.541500   0.646201   1.012710  26.629700  -0.003872   0.001012  18.640800  -0.001424   0.007935  49.090300   0.907689   0.787095  54.341100   0.003341   0.002006  39.599000   0.002325  -0.002007  33.844300  -1.068320  -1.592020  50.789200   0.003088  -0.000092  33.825700   0.002085  -0.000242  59.216500  -8.464990  -5.011810  89.381300  -0.000036   0.001079  59.528000   0.000750   0.005341  11.099800   3.902390  -1.721640   1.497730  30.450000   5.366480 -13.686400 -15.085900  -3.372900   0.000000   0.000000   0.000000  13.984900  17.444600 -14.255600   0.326129   2.881620 -11.385100 -16.055800  -2.282030  -3.884760   0.000000   0.000000   0.000000
-11.601400  87.590800   2.451860  -0.941370 -18.630300  11.703200   0.060530   9.615850  -0.432121   0.200175  19.231000  -0.894048   5.425540  -1.293750   0.122862   8.925410  -2.552660 -17.862200  -4.125930  -1.972840   2.346440 -45.827400  12.504800 -64.639200  -0.381152  -4.944340 -130.822000  28.816300   8.193680 -28.565100  58.627000  58.638100 -106.591000 -45.138000  -0.004747   0.000387 -19.580400  -0.003626   0.003113 -32.177200  10.346000 -15.960300 -27.517000   0.001197  -0.000000 -19.261900   0.000957   0.000000 -89.000000  -0.001674   0.001915 -95.830100  -0.001289  -0.003275 -71.872600   0.008865   0.005377 -88.996100  -5.003980   0.088467 -89.627400   0.001344   0.002284 -67.220500  -0.000791   0.001949 -88.985200  -9.996060   0.173311 -110.000000   0.002472  -0.002146 -80.000000   0.001463  -0.000739   7.221550  -0.116187   8.196240  69.150400  18.431800  10.462600   0.618314  -4.165350  18.542900 -25.637200 -15.098900   4.344040 -35.109400  29.091600  62.652600  34.358300   0.001794  -0.001152  12.179200   0.002145   0.007398  32.506100   0.594066   0.932414  26.600100  -0.003861   0.001048  18.620000  -0.001469   0.007940  49.187800   0.836554   0.723766  54.336700   0.003325   0.002017  39.619000   0.002326  -0.001988  33.838300  -1.176830  -1.754190  50.785000   0.003014  -0.000094  33.822800   0.002076  -0.000243  59.297800  -8.501940  -5.017110  89.506200  -0.000000   0.001079  59.611100   0.000756   0.005301  11.128600   3.939740  -1.701610   1.402170  30.516500   5.505530 -13.676000 -15.142700  -3.394040   0.000000   0.000000  -0.000000  13.972800  17.508800 -14.258500   0.315215   2.914020 -11.327500 -16.005200  -2.307820  -3.829730   0.000000   0.000000   0.000000
-11.513100  87.600100   2.448760  -1.019580 -18.680100  11.550000   0.086897   9.609640  -0.493802   0.264922  19.218200  -1.024760   5.414990  -1.252420   0.118684   8.903730  -2.470820 -18.789800  -4.122530  -1.905570   2.377140 -45.803900  12.582500 -64.721100  -0.320469  -5.014280 -130.795000  28.675900   8.028670 -28.231200  57.980200  58.553400 -105.801000 -45.534400  -0.004670   0.000482 -19.994500  -0.003671   0.003268 -31.722200  10.053800 -15.767500 -27.094800   0.000861   0.000094 -18.966300   0.000539   0.000055 -89.000000  -0.001618   0.001935 -95.893500  -0.001280  -0.003428 -71.920200   0.008914   0.005375 -88.996100  -5.003880   0.088550 -89.624000   0.001539   0.002561 -67.217900  -0.000825   0.002149 -88.985200  -9.996030   0.173364 -110.000000   0.002491  -0.002164 -80.000000   0.001429  -0.000741   7.202780  -0.091985   8.237920  69.295600  18.265300  10.351700   0.604573  -3.971570  18.638600 -25.531100 -15.091700   4.375800 -35.110700  29.073400  62.557700  34.371700   0.001802  -0.001144  12.185900   0.002143   0.007414  32.472800   0.538711   0.846674  26.572100  -0.003849   0.001091  18.599600  -0.001505   0.007938  49.135700   0.758304   0.658946  54.340200   0.003298   0.002035  39.608900   0.002335  -0.001978  33.816600  -1.279600  -1.908870  50.756900   0.002941  -0.000088  33.804000   0.002065  -0.000237  59.278600  -8.493000  -5.015710  89.476600   0.000048   0.001079  59.591400   0.000751   0.005280  11.168900   3.976940  -1.690820   1.273870  30.583100   5.682660 -13.654000 -15.205200  -3.419860  -0.000000   0.000000   0.000000  13.960600  17.558200 -14.247800   0.295581   2.960630 -11.257500 -15.952800  -2.326220  -3.782390   0.000000   0.000000   0.000000
-11.425200  87.609700   2.439610  -1.104690 -18.712700  11.390300   0.116797   9.600740  -0.559779   0.337605  19.199900  -1.164850   5.383070  -1.216710   0.114655   8.853470  -2.400740 -19.820100  -4.121560  -1.819330   2.431130 -45.846700  12.664000 -64.782800  -0.267593  -5.083680 -130.774000  28.576600   7.923000 -27.938800  57.831400  58.554200 -105.610000 -45.715500  -0.004595   0.000578 -20.185400  -0.003722   0.003422 -30.711200   9.533130 -15.564600 -26.194300   0.000594   0.000157 -18.336000   0.000137   0.000084 -89.000000  -0.001563   0.001955 -95.957000  -0.001271  -0.003581 -71.967800   0.008962   0.005375 -88.996100  -5.003790   0.088629 -89.620500   0.001732   0.002835 -67.215300  -0.000860   0.002347 -88.985200  -9.996010   0.173420 -110.000000   0.002511  -0.002182 -80.000000   0.001395  -0.000744   7.179360  -0.067260   8.285430  69.455500  18.097600  10.235400   0.606212  -3.787160  18.669300 -25.421400 -15.086900   4.393280 -35.104100  29.052100  62.481800  34.404700   0.001808  -0.001135  12.202400   0.002140   0.007429  32.446500   0.477637   0.751496  26.549900  -0.003836   0.001136  18.584900  -0.001539   0.007937  48.922200   0.670525   0.587996  54.350400   0.003271   0.002055  39.564700   0.002346  -0.001969  33.776700  -1.374550  -2.053110  50.702700   0.002868  -0.000083  33.767900   0.002052  -0.000229  59.169300  -8.443070  -5.007630  89.308400   0.000099   0.001080  59.479400   0.000746   0.005261  11.216400   3.998100  -1.686230   1.128740  30.649500   5.861710 -13.621400 -15.272300  -3.436760   0.000000   0.000000   0.000000  13.942200  17.583300 -14.225900   0.274253   3.010780 -11.190800 -15.898200  -2.342070  -3.729460  -0.000000   0.000000  -0.000000
-11.340500  87.619200   2.422540  -1.203520 -18.723400  11.228900   0.154643   9.584180  -0.631859   0.427442  19.166000  -1.318740   5.320240  -1.188020   0.110661   8.753680  -2.341850 -20.993500  -4.120070  -1.707340   2.500510 -46.017100  12.722200 -64.792800  -0.235073  -5.123080 -130.800000  28.505800   8.062630 -27.682000  58.113800  58.638700 -105.946000 -45.654400  -0.004514   0.000689 -20.120600  -0.003772   0.003571 -29.063100   8.921480 -15.585800 -24.812000   0.000222  -0.000820 -17.368400  -0.000277  -0.000555 -89.000000  -0.001510   0.001976 -95.948900  -0.001265  -0.003740 -71.961700   0.009005   0.005375 -88.989200  -5.003690   0.088719 -89.552700   0.001921   0.003108 -67.164500  -0.000894   0.002544 -88.985100  -9.995970   0.173473 -110.000000   0.002535  -0.002202 -80.000000   0.001358  -0.000749   7.149140  -0.054417   8.325220  69.635300  17.938300  10.111700   0.630540  -3.604580  18.598200 -25.317300 -15.078100   4.395200 -35.071800  29.016900  62.437600  34.459400   0.001810  -0.001157  12.229700   0.002149   0.007464  32.436600   0.388211   0.610909  26.540900  -0.003826   0.001180  18.580600  -0.001570   0.007940  48.476100   0.541607   0.482013  54.368700   0.003258   0.002070  39.469200   0.002349  -0.001953  33.728900  -1.454620  -2.176580  50.635400   0.002792  -0.000092  33.723100   0.002037  -0.000227  58.923600  -8.331180  -4.990140  88.930600   0.000141   0.001080  59.227800   0.000748   0.005228  11.278700   3.989010  -1.692720   0.968700  30.718500   6.007770 -13.563900 -15.351700  -3.403400  -0.000000   0.000000  -0.000000  13.927300  17.585100 -14.199700   0.254608   3.059490 -11.144900 -15.839800  -2.358060  -3.653780   0.000000   0.000000   0.000000
